<svg width="200" height="36" viewBox="0 0 200 36" fill="none" xmlns="http://www.w3.org/2000/svg">
<g clip-path="url(#clip0_13066_1039)">
<path d="M36.306 3.68834H32.8649L24.8281 19.3917L32.8649 35.0951H36.306V3.68834Z" fill="white"/>
<path d="M40.9686 13.1235H36.3057V25.2983H40.9686V13.1235Z" fill="white"/>
<path d="M47.6714 4.18146C56.0444 4.18146 62.8482 10.8332 62.8482 19.0191C62.8482 27.205 56.0444 33.8568 47.6714 33.8568H2.19694V4.18146H47.6826M47.6714 2.03362H0V35.9937H47.6714C57.2662 35.9937 65.0451 28.3886 65.0451 19.0082C65.0451 9.62779 57.2662 2.02266 47.6714 2.02266V2.03362Z" fill="white"/>
<path d="M14.5039 15.1837L20.3886 3.68834H18.371L12.4863 15.1837H14.5039Z" fill="white"/>
<path d="M12.2961 23.2381L18.3714 35.0951H20.389L14.3249 23.2381H12.2961Z" fill="white"/>
<path d="M49.084 13.1235H40.9688V14.6248H49.084V13.1235Z" fill="white"/>
<path d="M49.084 23.797H40.9688V25.2983H49.084V23.797Z" fill="white"/>
<path d="M68.2954 3.43629H72.0616V8.44428L75.7381 3.43629H80.1208L75.2561 9.49629L80.2441 15.9508H75.5812L72.0504 10.8442V15.9508H68.2842V3.43629H68.2954Z" fill="white"/>
<path d="M87.665 3.43629H92.1934L96.7218 15.9398H92.6978L92.0029 13.781H87.8332L87.1158 15.9398H83.0918L87.6426 3.43629H87.665ZM88.5617 11.0305H91.3079L89.9404 6.61423L88.5729 11.0305H88.5617Z" fill="white"/>
<path d="M109.186 15.7864C108.928 15.896 108.67 15.9837 108.424 16.0494C108.098 16.148 107.773 16.2028 107.448 16.2357C107.123 16.2686 106.809 16.2795 106.507 16.2795L106.327 16.3014C104.523 16.2905 102.987 15.7097 101.698 14.5481C100.42 13.3975 99.7815 11.7756 99.7815 9.69354C99.7815 7.61144 100.454 5.86906 101.788 4.7513C103.133 3.63354 104.624 3.08562 106.26 3.08562H106.44C106.664 3.08562 106.888 3.09658 107.112 3.1185C107.347 3.14042 107.583 3.17329 107.829 3.22808C108.199 3.29383 108.558 3.40342 108.917 3.54588C109.275 3.68834 109.623 3.86367 109.948 4.08284V7.71007H109.769C109.69 7.6224 109.612 7.53473 109.511 7.44707C109.41 7.34844 109.298 7.24981 109.186 7.14023C108.917 6.9101 108.58 6.70189 108.188 6.5156C107.796 6.32931 107.336 6.21973 106.832 6.20877C105.834 6.23068 105.05 6.60327 104.489 7.30461C103.929 8.00594 103.649 8.83878 103.649 9.79216C103.649 10.8661 103.962 11.688 104.59 12.2688C105.218 12.8496 105.969 13.1454 106.832 13.1673C107.482 13.1454 108.042 12.992 108.536 12.7181C109.029 12.4441 109.444 12.1373 109.769 11.8085H109.948V15.359C109.69 15.5234 109.432 15.6659 109.186 15.7645V15.7864Z" fill="white"/>
<path d="M114.868 3.43629H126.458V15.9398H122.692V6.43889H118.634V15.9398H114.868V3.43629Z" fill="white"/>
<path d="M173.771 22.0217V34.5253H177.347H177.538V22.0217H173.951H173.771Z" fill="white"/>
<path d="M181.595 22.0217V34.5253H185.17H185.35V22.0217H181.595Z" fill="white"/>
<path d="M181.595 26.7667H177.537V29.7693H181.595V26.7667Z" fill="white"/>
<path d="M170.981 26.7667H163.986V29.7693H170.981V26.7667Z" fill="white"/>
<path d="M188.421 22.0217V34.5253H191.997H192.187V22.0217H188.6H188.421Z" fill="white"/>
<path d="M196.245 22.0217V34.5253H199.821H200V22.0217H196.245Z" fill="white"/>
<path d="M196.245 26.7667H192.188V29.7693H196.245V26.7667Z" fill="white"/>
<path d="M135.011 3.43629V10.6688L139.786 3.43629H143.473V15.9398H139.842V8.71824L135.145 15.9398H131.379V3.43629H135.011Z" fill="white"/>
<path d="M152.014 3.43629V10.6688L156.789 3.43629H160.477V15.9398H156.846V8.71824L152.149 15.9398H148.383V3.43629H152.014ZM152.945 0.00631591H153.124C153.191 0.280276 153.303 0.488485 153.449 0.630944C153.595 0.773403 153.752 0.872029 153.92 0.937779C154.032 0.981613 154.144 1.01449 154.245 1.0364C154.357 1.05832 154.447 1.05832 154.536 1.05832C154.626 1.05832 154.716 1.05832 154.828 1.0364C154.94 1.01449 155.052 0.981613 155.153 0.937779C155.321 0.882987 155.478 0.773403 155.624 0.630944C155.769 0.488485 155.882 0.280276 155.949 0.00631591H156.128L158.213 0.751487C157.899 1.46378 157.406 1.97883 156.745 2.28566C156.083 2.5925 155.366 2.74591 154.615 2.74591H154.436C153.595 2.74591 152.855 2.57058 152.205 2.21991C151.555 1.86924 151.107 1.37612 150.838 0.740528L152.922 -0.00464249L152.945 0.00631591Z" fill="white"/>
<path d="M74.3036 26.8982C74.1803 26.1969 73.8328 25.6051 73.25 25.1339C72.6671 24.6627 71.9721 24.4216 71.1427 24.4107H71.0194C71.0194 24.4107 70.9297 24.4107 70.8849 24.4326C70.3805 24.4654 69.8985 24.586 69.4165 24.7832C68.9345 24.9805 68.4974 25.2545 68.0939 25.6161H67.9145V22.5477C68.1947 22.4053 68.4862 22.2738 68.7888 22.1642C69.0915 22.0546 69.4053 21.956 69.7192 21.8902C70.033 21.8245 70.3469 21.7697 70.6495 21.7258C70.9521 21.693 71.2436 21.6711 71.5238 21.6711H71.7031C73.4629 21.6711 74.9537 22.2519 76.1979 23.4244C77.4421 24.597 78.0586 26.153 78.0586 28.1036C78.0586 30.2624 77.4197 31.9281 76.1531 33.1116C74.8865 34.2951 73.3957 34.8759 71.6807 34.8759L71.5014 34.8978C71.1987 34.8869 70.8737 34.865 70.5374 34.8211C70.2011 34.7883 69.8537 34.7225 69.495 34.6458C69.226 34.5691 68.957 34.4924 68.6879 34.3938C68.4189 34.2951 68.1611 34.1746 67.9033 34.0321V30.909H68.0827C68.531 31.3035 69.0354 31.5994 69.5847 31.8076C70.1339 32.0158 70.7055 32.1254 71.2996 32.1363C72.2636 32.1144 73.0034 31.8404 73.5414 31.3035C74.0682 30.7775 74.3708 30.1419 74.4269 29.3967H70.2011V26.8982H74.2924H74.3036Z" fill="white"/>
<path d="M93.1232 22.0217V34.5253H89.3571V25.0243H86.9808V29.9556C86.9808 30.2186 86.9808 30.5035 86.9584 30.8104C86.9359 31.1172 86.8911 31.435 86.8239 31.7528C86.6669 32.487 86.2746 33.1664 85.6469 33.7582C85.0192 34.3609 83.9208 34.6568 82.3515 34.6568L82.1722 34.6787C81.9816 34.6677 81.8023 34.6568 81.6566 34.6568C81.4996 34.6568 81.3539 34.6348 81.2082 34.6129C81.1185 34.602 81.0401 34.591 80.9504 34.5691C80.8607 34.5472 80.7711 34.5362 80.6814 34.5253V31.5227H80.8607C80.984 31.5555 81.0961 31.5884 81.2194 31.5994C81.3427 31.6103 81.4548 31.6322 81.5781 31.6432C82.3739 31.6213 82.8447 31.3473 83.0016 30.8104C83.1586 30.2844 83.237 29.6488 83.237 28.9036V22.0108H93.1457L93.1232 22.0217Z" fill="white"/>
<path d="M97.4385 22.0217H105.296V25.0243H101.205V26.7777H104.915V29.5282H101.205V31.5336H105.296V34.5362H97.4385V22.0327V22.0217Z" fill="white"/>
<path d="M109.231 22.0217H112.997V27.0297L116.674 22.0217H121.056L116.192 28.0817L121.18 34.5362H116.517L112.986 29.4296V34.5362H109.22V22.0327L109.231 22.0217Z" fill="white"/>
<path d="M125.999 25.0243H123.186V22.0217H132.579V25.0243H129.765V34.5253H125.999V25.0243Z" fill="white"/>
<path d="M135.874 22.0217H141.445C142.813 22.0217 143.833 22.3066 144.505 22.8765C145.178 23.4463 145.637 24.0819 145.862 24.7723C145.951 25.0243 146.007 25.2654 146.041 25.5175C146.075 25.7695 146.097 25.9887 146.097 26.2078C146.097 26.427 146.075 26.6571 146.041 26.8982C146.007 27.1393 145.94 27.3913 145.862 27.6434C145.637 28.3338 145.189 28.9693 144.505 29.5501C143.822 30.1309 142.802 30.4159 141.434 30.4159H139.629V34.5472H135.863V22.0436L135.874 22.0217ZM139.641 27.6434H140.481C141.008 27.6434 141.389 27.5557 141.636 27.3913C141.882 27.227 142.039 27.0516 142.129 26.8544C142.174 26.7229 142.208 26.6023 142.219 26.4818C142.23 26.3613 142.241 26.2626 142.241 26.1969C142.241 26.1311 142.241 26.0544 142.241 25.9777C142.241 25.912 142.23 25.8352 142.219 25.7585C142.163 25.5065 142.006 25.2764 141.759 25.0682C141.513 24.86 141.098 24.7504 140.493 24.7504H139.652V27.6215L139.641 27.6434Z" fill="white"/>
<path d="M149.033 32.9034C147.868 31.5774 147.273 30.0433 147.273 28.279C147.273 26.5147 147.845 24.9915 149 23.6655C150.154 22.3395 151.869 21.6711 154.144 21.6711H154.324C156.599 21.6711 158.314 22.3395 159.469 23.6655C160.623 24.9915 161.195 26.5366 161.195 28.279C161.195 30.0214 160.623 31.5774 159.469 32.8925C158.314 34.2075 156.599 34.865 154.324 34.8759L154.144 34.8978C151.903 34.8978 150.199 34.2403 149.022 32.9144L149.033 32.9034ZM154.604 31.8514C154.739 31.8295 154.873 31.7966 155.008 31.7528C155.59 31.5994 156.128 31.2487 156.61 30.7117C157.092 30.1748 157.328 29.3529 157.328 28.268C157.328 27.1831 157.081 26.3722 156.599 25.8243C156.117 25.2873 155.579 24.9367 155.008 24.7832C154.873 24.7504 154.739 24.7175 154.615 24.6956C154.492 24.6737 154.357 24.6627 154.245 24.6627C154.111 24.6627 153.976 24.6737 153.819 24.6956C153.674 24.7175 153.528 24.7504 153.393 24.8052C152.833 24.9695 152.317 25.3312 151.847 25.8681C151.376 26.4051 151.14 27.216 151.14 28.268C151.14 29.32 151.376 30.1309 151.847 30.6679C152.317 31.2049 152.833 31.5665 153.393 31.7309C153.528 31.7747 153.662 31.8185 153.808 31.8404C153.943 31.8624 154.088 31.8733 154.223 31.8733C154.346 31.8733 154.47 31.8733 154.604 31.8514Z" fill="white"/>
</g>
<defs>
<clipPath id="clip0_13066_1039">
<rect width="200" height="36" fill="white"/>
</clipPath>
</defs>
</svg>
