<svg width="258" height="235" viewBox="0 0 258 235" fill="none" xmlns="http://www.w3.org/2000/svg">
<path d="M98.628 31.3685C97.86 31.3685 97.252 31.2032 96.804 30.8725C96.356 30.5418 96.036 30.0885 95.844 29.5125C95.652 28.9365 95.556 28.2805 95.556 27.5445V21.9125C95.556 21.1658 95.652 20.5098 95.844 19.9445C96.0467 19.3685 96.372 18.9205 96.82 18.6005C97.2787 18.2805 97.8813 18.1205 98.628 18.1205C99.396 18.1205 100.004 18.2805 100.452 18.6005C100.911 18.9205 101.236 19.3685 101.428 19.9445C101.631 20.5098 101.732 21.1658 101.732 21.9125V27.5445C101.732 28.2912 101.631 28.9525 101.428 29.5285C101.236 30.1045 100.916 30.5578 100.468 30.8885C100.02 31.2085 99.4067 31.3685 98.628 31.3685ZM98.628 30.4405C99.1293 30.4405 99.5133 30.3125 99.78 30.0565C100.057 29.8005 100.249 29.4645 100.356 29.0485C100.473 28.6218 100.532 28.1525 100.532 27.6405V21.8325C100.532 21.3098 100.473 20.8405 100.356 20.4245C100.249 19.9978 100.063 19.6618 99.796 19.4165C99.5293 19.1712 99.14 19.0485 98.628 19.0485C98.1373 19.0485 97.7533 19.1712 97.476 19.4165C97.2093 19.6618 97.0173 19.9978 96.9 20.4245C96.7933 20.8405 96.74 21.3098 96.74 21.8325V27.6405C96.74 28.1525 96.7933 28.6218 96.9 29.0485C97.0173 29.4645 97.2147 29.8005 97.492 30.0565C97.7693 30.3125 98.148 30.4405 98.628 30.4405ZM105.454 31.2085V19.8165C105.39 19.9125 105.262 20.0085 105.07 20.1045C104.878 20.2005 104.664 20.2858 104.43 20.3605C104.206 20.4352 103.998 20.5045 103.806 20.5685C103.624 20.6218 103.507 20.6538 103.454 20.6645V19.7205C103.603 19.6778 103.779 19.6138 103.982 19.5285C104.184 19.4432 104.387 19.3418 104.59 19.2245C104.792 19.0965 104.99 18.9525 105.182 18.7925C105.384 18.6325 105.555 18.4512 105.694 18.2485H106.638V31.2085H105.454Z" fill="#050F36"/>
<path d="M94.5 49.8836H114.5L137.5 25.1918L120.5 0.5H0.5V234.578" stroke="url(#paint0_linear_13227_6)"/>
<g clip-path="url(#clip0_13227_6)">
<path d="M65.3323 13.2085H11.6678C11.0182 13.22 10.4919 13.7843 10.5031 14.4752V53.2376C10.5031 53.9171 11.0182 54.5044 11.6678 54.5044H28.9699V59.7671H25.4535C24.7927 59.7671 24.2664 60.3199 24.2664 60.9878C24.2664 61.6557 24.8039 62.2085 25.4535 62.2085H51.5354C52.1961 62.2085 52.7225 61.6557 52.7225 60.9878C52.7225 60.3199 52.1849 59.7671 51.5354 59.7671H48.6237V54.5044H65.3211C65.9818 54.5044 66.4858 53.9171 66.4858 53.2376V14.4752C66.497 13.7843 65.9706 13.22 65.3211 13.2085H65.3323ZM46.2384 59.7671H31.344V54.5044H46.2384V59.7671ZM64.1116 52.04H12.8884V15.6614H64.1116V52.0515V52.04Z" fill="#0B50AA"/>
<path d="M60.8969 17.3774H15.9786C15.3178 17.3774 14.7915 17.9302 14.7915 18.5981V48.6085C14.7915 49.2879 15.329 49.8291 15.9786 49.8291H60.8969C61.5576 49.8291 62.0839 49.2764 62.0839 48.6085V18.5981C62.0839 17.9187 61.5464 17.3774 60.8969 17.3774ZM59.8218 47.3878H17.1768V19.8188H59.8218V47.3878Z" fill="#0B50AA"/>
<path d="M56.3734 33.9026C56.2278 33.6378 55.9926 33.4305 55.7014 33.3153L41.1878 28.1217C40.5719 27.9029 39.8888 28.2368 39.676 28.8817C39.5976 29.135 39.5976 29.4229 39.676 29.6878L44.7266 44.6124C44.8834 45.073 45.2866 45.3954 45.7681 45.43H45.8689C46.3057 45.43 46.72 45.1766 46.9216 44.7851L48.7582 41.2037L51.1659 43.6566C51.6251 44.1287 52.3866 44.1287 52.8457 43.6566L54.7943 41.6528C55.2535 41.1806 55.2535 40.3976 54.7943 39.9254L52.409 37.4495L55.8806 35.5609C56.4629 35.2385 56.6869 34.513 56.3846 33.9026H56.3734ZM49.3629 37.7144C49.4189 37.818 49.4973 37.9101 49.5757 37.9907L52.2522 40.7661L51.9834 41.0425L49.2845 38.2902C48.8254 37.818 48.0527 37.818 47.6047 38.3017C47.5263 38.3823 47.4479 38.4859 47.4031 38.6011L46.0929 41.1461L42.7444 31.254L52.3418 34.6972L49.8669 36.0446C49.2845 36.367 49.0606 37.0925 49.3629 37.7029V37.7144Z" fill="#0B50AA"/>
<path d="M38.6792 25.3693H38.668L36.9434 23.5843C36.4842 23.1122 35.7227 23.1122 35.2636 23.5843C34.8044 24.0565 34.8044 24.8396 35.2636 25.3117H35.2748L36.9994 27.0967C37.4585 27.5688 38.22 27.5688 38.6792 27.0967C39.1383 26.6245 39.1383 25.8414 38.6792 25.3693Z" fill="#0B50AA"/>
<path d="M43.4946 25.4843V25.4613L42.9906 22.7436C42.8674 22.0871 42.2515 21.6265 41.6132 21.7532C40.9748 21.8799 40.5269 22.5132 40.6501 23.1696V23.1927L41.154 25.9104C41.2772 26.5668 41.8931 27.0275 42.5315 26.9008C43.1698 26.7741 43.6177 26.1407 43.4946 25.4843Z" fill="#0B50AA"/>
<path d="M37.5374 29.6301L34.8945 29.1119C34.2562 28.9852 33.6178 29.4228 33.5058 30.0908C33.3827 30.7472 33.8082 31.4036 34.4577 31.5187L37.1006 32.0369C37.739 32.1636 38.3773 31.726 38.4893 31.0581C38.6125 30.4017 38.1757 29.7568 37.5374 29.6301Z" fill="#0B50AA"/>
</g>
<line x1="147.5" y1="25.7085" x2="257.5" y2="25.7085" stroke="black" stroke-dasharray="2 4"/>
<defs>
<linearGradient id="paint0_linear_13227_6" x1="79.5" y1="0.5" x2="79.5" y2="234.578" gradientUnits="userSpaceOnUse">
<stop stop-color="#FF461E"/>
<stop offset="1" stop-color="#9FA4B8" stop-opacity="0"/>
</linearGradient>
<clipPath id="clip0_13227_6">
<rect width="56" height="49" fill="white" transform="translate(10.5 13.2085)"/>
</clipPath>
</defs>
</svg>
