<svg width="287" height="233" viewBox="0 0 287 233" fill="none" xmlns="http://www.w3.org/2000/svg">
<path d="M127.624 31.66C126.856 31.66 126.248 31.4947 125.8 31.164C125.352 30.8333 125.032 30.38 124.84 29.804C124.648 29.228 124.552 28.572 124.552 27.836V22.204C124.552 21.4573 124.648 20.8013 124.84 20.236C125.043 19.66 125.368 19.212 125.816 18.892C126.275 18.572 126.877 18.412 127.624 18.412C128.392 18.412 129 18.572 129.448 18.892C129.907 19.212 130.232 19.66 130.424 20.236C130.627 20.8013 130.728 21.4573 130.728 22.204V27.836C130.728 28.5827 130.627 29.244 130.424 29.82C130.232 30.396 129.912 30.8493 129.464 31.18C129.016 31.5 128.403 31.66 127.624 31.66ZM127.624 30.732C128.125 30.732 128.509 30.604 128.776 30.348C129.053 30.092 129.245 29.756 129.352 29.34C129.469 28.9133 129.528 28.444 129.528 27.932V22.124C129.528 21.6013 129.469 21.132 129.352 20.716C129.245 20.2893 129.059 19.9533 128.792 19.708C128.525 19.4627 128.136 19.34 127.624 19.34C127.133 19.34 126.749 19.4627 126.472 19.708C126.205 19.9533 126.013 20.2893 125.896 20.716C125.789 21.132 125.736 21.6013 125.736 22.124V27.932C125.736 28.444 125.789 28.9133 125.896 29.34C126.013 29.756 126.211 30.092 126.488 30.348C126.765 30.604 127.144 30.732 127.624 30.732ZM132.545 31.5V30.636L136.033 25.292C136.289 24.8973 136.529 24.5187 136.753 24.156C136.977 23.7827 137.159 23.3933 137.297 22.988C137.447 22.5827 137.521 22.124 137.521 21.612C137.521 20.9187 137.377 20.3747 137.089 19.98C136.812 19.5853 136.38 19.388 135.793 19.388C135.271 19.388 134.865 19.5053 134.577 19.74C134.289 19.9747 134.087 20.3 133.969 20.716C133.863 21.1213 133.809 21.58 133.809 22.092V22.38H132.641V22.06C132.641 21.26 132.748 20.5933 132.961 20.06C133.175 19.516 133.505 19.1053 133.953 18.828C134.412 18.5507 135.009 18.412 135.745 18.412C136.727 18.412 137.463 18.7053 137.953 19.292C138.444 19.868 138.689 20.6733 138.689 21.708C138.689 22.2307 138.615 22.7107 138.465 23.148C138.316 23.5853 138.124 24.0067 137.889 24.412C137.655 24.8067 137.409 25.2067 137.153 25.612L133.921 30.508H138.417V31.5H132.545Z" fill="#050F36"/>
<path d="M123.496 49.9889H143.496L166.496 25.2444L149.496 0.5H30.4958L0.49585 232.603" stroke="url(#paint0_linear_13232_7)"/>
<g clip-path="url(#clip0_13232_7)">
<path d="M101.496 24.3416V15.3032H90.6543V18.9208H87.0367V31.5656H85.2334V13.5H62.2846L52.7198 23.0648V39.4504C51.5998 40.7272 50.9166 42.3848 50.9166 44.2104C50.9166 46.4616 51.9582 48.4776 53.5822 49.8104C48.9902 50.684 45.4958 54.716 45.4958 59.5656V69.5H66.2718V57.908C66.2718 57.4712 66.4398 57.0568 66.7534 56.7432L72.0622 51.4344H85.2334V33.3688H87.0367V46.0136H90.6543V49.6312H101.496V40.604H90.6543V44.2216H88.851V33.38H90.6543V36.9976H101.496V27.9704H90.6543V31.588H88.851V20.724H90.6543V24.3416H101.496ZM92.4686 17.1176H99.6926V22.5384H92.4686V17.1176ZM61.7582 16.58V22.5272H55.811L61.7582 16.58ZM52.7198 44.2104C52.7198 41.22 55.1502 38.7896 58.1406 38.7896C61.1311 38.7896 63.5614 41.22 63.5614 44.2104C63.5614 47.2008 61.1311 49.6312 58.1406 49.6312C55.1502 49.6312 52.7198 47.2008 52.7198 44.2104ZM60.8174 50.9192C60.6271 52.2296 59.507 53.2376 58.1518 53.2376C56.7966 53.2376 55.6655 52.2296 55.4862 50.9192C56.3151 51.2552 57.2111 51.4344 58.1518 51.4344C59.0926 51.4344 59.9999 51.244 60.8174 50.9192ZM65.4767 55.4664C64.827 56.116 64.4687 56.9896 64.4687 57.908V67.6856H51.8238V56.844H50.0206V67.6856H47.299V59.5544C47.299 55.6456 50.0766 52.364 53.7614 51.6024C54.243 53.5736 56.0126 55.0408 58.1294 55.0408C60.5038 55.0408 62.4415 53.1816 62.6094 50.852C65.0063 50.2584 67.2238 49.0264 68.971 47.2792L73.8542 42.396L74.3807 41.8696L76.979 39.2712C77.2927 38.9576 77.7071 38.7896 78.1438 38.7896C79.051 38.7896 79.7902 39.5288 79.7902 40.4472C79.7902 40.884 79.6222 41.2984 79.3087 41.612L65.4542 55.4664H65.4767ZM72.5886 40.5928H70.7854V33.3688H72.5886V40.5928ZM78.0094 36.9976V26.1448H79.8126V37.4232C79.3199 37.1544 78.7598 36.9864 78.1662 36.9864C78.1102 36.9864 78.0654 36.9976 78.0094 36.9976ZM83.4302 49.6312H73.8654L80.6078 42.8888C81.2575 42.2392 81.6158 41.3656 81.6158 40.4472V24.3416H76.195V37.6024C76.0271 37.7256 75.859 37.8488 75.7134 37.9944L74.3918 39.316V31.5656H68.971V42.4072H71.3118L67.7055 46.0136C66.619 47.1 65.3199 47.9624 63.9086 48.5448C64.8159 47.3352 65.3646 45.8344 65.3646 44.2104C65.3646 43.5832 65.2751 42.9784 65.1294 42.4072H67.1791V26.1448H61.7582V37.9608C60.6943 37.3448 59.4622 36.9864 58.1406 36.9864C56.819 36.9864 55.5871 37.3448 54.5231 37.9608V24.3416H63.5503V15.3032H83.4191V49.6312H83.4302ZM63.5614 39.4504V27.9592H65.3646V40.604H64.3903C64.1551 40.1896 63.875 39.8088 63.5614 39.4504ZM92.4686 42.4072H99.6926V47.828H92.4686V42.4072ZM92.4686 29.7624H99.6926V35.1832H92.4686V29.7624Z" fill="#0B50AA"/>
<path d="M94.2712 18.9209H97.8888V20.7241H94.2712V18.9209Z" fill="#0B50AA"/>
<path d="M94.2712 31.5657H97.8888V33.3689H94.2712V31.5657Z" fill="#0B50AA"/>
<path d="M94.2712 44.2102H97.8888V46.0134H94.2712V44.2102Z" fill="#0B50AA"/>
<path d="M79.8237 17.1177H81.6269V18.9209H79.8237V17.1177Z" fill="#0B50AA"/>
<path d="M76.2058 17.1177H78.009V18.9209H76.2058V17.1177Z" fill="#0B50AA"/>
<path d="M65.3647 17.1177H74.3919V18.9209H65.3647V17.1177Z" fill="#0B50AA"/>
<path d="M65.3647 20.7241H81.6271V22.5273H65.3647V20.7241Z" fill="#0B50AA"/>
<path d="M56.3369 26.1448H58.1401V27.948H56.3369V26.1448Z" fill="#0B50AA"/>
<path d="M56.3369 29.7625H58.1401V31.5656H56.3369V29.7625Z" fill="#0B50AA"/>
<path d="M56.3369 33.3689H58.1401V35.1721H56.3369V33.3689Z" fill="#0B50AA"/>
</g>
<line x1="176.496" y1="26" x2="286.496" y2="26" stroke="black" stroke-dasharray="2 4"/>
<defs>
<linearGradient id="paint0_linear_13232_7" x1="108.496" y1="0.5" x2="108.496" y2="232.603" gradientUnits="userSpaceOnUse">
<stop stop-color="#FF461E"/>
<stop offset="1" stop-color="#9FA4B8" stop-opacity="0"/>
</linearGradient>
<clipPath id="clip0_13232_7">
<rect width="56" height="56" fill="white" transform="translate(45.4958 13.5)"/>
</clipPath>
</defs>
</svg>
