<svg width="287" height="233" viewBox="0 0 287 233" fill="none" xmlns="http://www.w3.org/2000/svg">
<path d="M127.624 31.3685C126.856 31.3685 126.248 31.2032 125.8 30.8725C125.352 30.5418 125.032 30.0885 124.84 29.5125C124.648 28.9365 124.552 28.2805 124.552 27.5445V21.9125C124.552 21.1658 124.648 20.5098 124.84 19.9445C125.043 19.3685 125.368 18.9205 125.816 18.6005C126.275 18.2805 126.877 18.1205 127.624 18.1205C128.392 18.1205 129 18.2805 129.448 18.6005C129.907 18.9205 130.232 19.3685 130.424 19.9445C130.627 20.5098 130.728 21.1658 130.728 21.9125V27.5445C130.728 28.2912 130.627 28.9525 130.424 29.5285C130.232 30.1045 129.912 30.5578 129.464 30.8885C129.016 31.2085 128.403 31.3685 127.624 31.3685ZM127.624 30.4405C128.125 30.4405 128.509 30.3125 128.776 30.0565C129.053 29.8005 129.245 29.4645 129.352 29.0485C129.469 28.6218 129.528 28.1525 129.528 27.6405V21.8325C129.528 21.3098 129.469 20.8405 129.352 20.4245C129.245 19.9978 129.059 19.6618 128.792 19.4165C128.525 19.1712 128.136 19.0485 127.624 19.0485C127.133 19.0485 126.749 19.1712 126.472 19.4165C126.205 19.6618 126.013 19.9978 125.896 20.4245C125.789 20.8405 125.736 21.3098 125.736 21.8325V27.6405C125.736 28.1525 125.789 28.6218 125.896 29.0485C126.013 29.4645 126.211 29.8005 126.488 30.0565C126.765 30.3125 127.144 30.4405 127.624 30.4405ZM135.569 31.3685C134.897 31.3685 134.348 31.2405 133.921 30.9845C133.495 30.7178 133.18 30.3498 132.977 29.8805C132.785 29.4112 132.689 28.8565 132.689 28.2165V27.8965H133.825C133.825 27.9178 133.825 27.9605 133.825 28.0245C133.825 28.0885 133.825 28.1365 133.825 28.1685C133.836 28.6272 133.895 29.0272 134.001 29.3685C134.108 29.6992 134.289 29.9552 134.545 30.1365C134.801 30.3178 135.143 30.4085 135.569 30.4085C135.975 30.4085 136.316 30.3232 136.593 30.1525C136.881 29.9712 137.095 29.6778 137.233 29.2725C137.383 28.8672 137.457 28.3392 137.457 27.6885C137.457 26.8885 137.313 26.2378 137.025 25.7365C136.737 25.2245 136.236 24.9578 135.521 24.9365C135.5 24.9365 135.447 24.9365 135.361 24.9365C135.276 24.9365 135.223 24.9365 135.201 24.9365V23.8165C135.223 23.8165 135.276 23.8165 135.361 23.8165C135.447 23.8165 135.5 23.8165 135.521 23.8165C136.215 23.8165 136.711 23.6245 137.009 23.2405C137.308 22.8458 137.457 22.2165 137.457 21.3525C137.457 20.6805 137.329 20.1312 137.073 19.7045C136.828 19.2778 136.369 19.0645 135.697 19.0645C135.047 19.0645 134.572 19.2512 134.273 19.6245C133.985 19.9872 133.836 20.5525 133.825 21.3205C133.825 21.3418 133.825 21.3792 133.825 21.4325C133.825 21.4752 133.825 21.5125 133.825 21.5445H132.689V21.2405C132.689 20.6005 132.785 20.0512 132.977 19.5925C133.18 19.1232 133.505 18.7605 133.953 18.5045C134.401 18.2485 134.977 18.1205 135.681 18.1205C136.364 18.1205 136.924 18.2592 137.361 18.5365C137.799 18.8138 138.124 19.1978 138.337 19.6885C138.551 20.1685 138.657 20.7232 138.657 21.3525C138.657 22.2592 138.481 22.9632 138.129 23.4645C137.788 23.9552 137.345 24.2645 136.801 24.3925C137.121 24.4778 137.42 24.6485 137.697 24.9045C137.985 25.1605 138.215 25.5178 138.385 25.9765C138.567 26.4245 138.657 26.9898 138.657 27.6725C138.657 28.3978 138.551 29.0432 138.337 29.6085C138.135 30.1632 137.809 30.5952 137.361 30.9045C136.913 31.2138 136.316 31.3685 135.569 31.3685Z" fill="#050F36"/>
<path d="M123.496 49.8836H143.496L166.496 25.1918L149.496 0.5L30.4958 0.5L0.49585 232.603" stroke="url(#paint0_linear_13232_8)"/>
<g clip-path="url(#clip0_13232_8)">
<path d="M50.4462 51.1205L61.7582 48.6118V46.8085C60.0334 45.6885 58.6894 44.0421 57.9278 42.1045H55.4302C53.4366 42.1045 51.8126 40.4806 51.8126 38.487V32.159C51.8126 30.8262 52.5406 29.6726 53.6158 29.0454V25.0918C53.6158 23.1206 54.7918 21.3734 56.5726 20.6118L56.7854 20.1862C58.9582 15.8966 63.2814 13.231 68.0974 13.231C75.0638 13.231 80.7198 18.8982 80.7198 25.8534V29.0678C81.795 29.695 82.523 30.8486 82.523 32.1814V38.5094C82.523 40.503 80.899 42.1269 78.9054 42.1269H76.4078C75.6462 44.0646 74.3022 45.7109 72.5774 46.831V48.6341L83.8894 51.1429C86.8014 51.7925 88.8398 54.3349 88.8398 57.3141V69.2197H45.4958V57.3141C45.4958 54.3237 47.5342 51.7925 50.4462 51.1429V51.1205ZM60.9742 50.6389L62.3182 56.0037L65.7566 53.7189L62.3742 50.3366L60.9854 50.6502L60.9742 50.6389ZM68.243 60.1813H66.115L64.6702 67.4053H69.6878L68.243 60.1813ZM66.0702 58.3669H68.2766L68.859 56.0597L67.179 54.9397L65.499 56.0597L66.0814 58.3669H66.0702ZM53.627 38.4982C53.627 39.495 54.4334 40.3014 55.4302 40.3014H57.4126C57.3006 39.719 57.2446 39.1142 57.2446 38.4982V30.367H55.4414C54.4446 30.367 53.6382 31.1734 53.6382 32.1702V38.4982H53.627ZM78.9166 25.8534C78.9166 19.8838 74.067 15.0342 68.0974 15.0342C63.9758 15.0342 60.2686 17.3302 58.4206 21.015L57.883 22.0902L57.5246 22.2134C56.2702 22.6278 55.4302 23.7926 55.4302 25.1142V28.5638H57.2334V25.8534H59.0366V27.9814C59.7086 28.3286 60.4478 28.519 61.1982 28.5414C60.7838 28.1606 60.403 27.735 60.0894 27.2534L61.5902 26.2566C62.5198 27.6454 64.0542 28.4966 65.7118 28.5526C65.2974 28.1718 64.9166 27.735 64.603 27.2534L66.1038 26.2566C67.0334 27.6454 68.5678 28.4966 70.2254 28.5526C69.811 28.1718 69.4302 27.735 69.1166 27.2534L70.6174 26.2566C71.5806 27.7014 73.1934 28.5638 74.9294 28.5638H75.2878V25.8534H77.091V28.5638H78.8942V25.8534H78.9166ZM78.9166 40.3014C79.9134 40.3014 80.7198 39.495 80.7198 38.4982V32.1702C80.7198 31.1734 79.9134 30.367 78.9166 30.367H77.1134V38.4982C77.1134 39.1142 77.0462 39.719 76.9454 40.3014H78.9278H78.9166ZM75.299 38.4982V30.367H74.9406C73.787 30.367 72.6782 30.087 71.6814 29.5606V30.367H70.4158C69.2622 30.367 68.1534 30.087 67.1566 29.5606V30.367H65.891C64.7374 30.367 63.6286 30.087 62.6318 29.5606V30.367H61.3662C60.5598 30.367 59.7646 30.2102 59.0142 29.9414V38.4982C59.0142 39.1142 59.0926 39.719 59.227 40.3014H63.6958C64.0654 39.2486 65.0622 38.4982 66.2382 38.4982H68.0414C69.531 38.4982 70.7518 39.719 70.7518 41.2086C70.7518 42.6982 69.531 43.919 68.0414 43.919H66.2382C65.0622 43.919 64.0654 43.1574 63.6958 42.1157H59.8654C61.1982 44.7925 63.9534 46.6293 67.1342 46.6293C71.6142 46.6293 75.2654 42.9781 75.2654 38.4982H75.299ZM65.3646 41.2086C65.3646 41.7014 65.7678 42.1157 66.2718 42.1157H68.075C68.5678 42.1157 68.9822 41.7126 68.9822 41.2086C68.9822 40.7046 68.579 40.3014 68.075 40.3014H66.2718C65.779 40.3014 65.3646 40.7046 65.3646 41.2086ZM67.1678 48.4325C65.891 48.4325 64.6814 48.1861 63.5502 47.7381V48.959L67.1678 52.5765L70.7854 48.959V47.7381C69.6654 48.1749 68.4446 48.4325 67.1678 48.4325ZM71.9726 50.3253L68.5902 53.7077L72.0286 55.9925L73.3726 50.6278L71.9838 50.3142L71.9726 50.3253ZM87.0478 57.3029C87.0478 55.1749 85.5918 53.3605 83.5086 52.8901L75.131 51.0309L73.1598 58.9269L70.4494 57.1237L69.9118 59.2965L71.5358 67.4053H79.8238V57.4709H81.627V67.4053H87.0478V57.3029ZM47.299 67.4053H52.7198V57.4709H54.523V67.4053H62.811L64.435 59.2965L63.8974 57.1237L61.187 58.9269L59.2158 51.0309L50.8382 52.8901C48.755 53.3493 47.299 55.1637 47.299 57.3029V67.4053Z" fill="#0B50AA"/>
<path d="M60.8516 33.0771C60.8516 33.5811 61.2548 33.9843 61.7588 33.9843C62.2628 33.9843 62.666 33.5811 62.666 33.0771C62.666 32.5731 62.2628 32.1699 61.7588 32.1699C61.2548 32.1699 60.8516 32.5731 60.8516 33.0771Z" fill="#0B50AA"/>
<path d="M71.6926 33.0774C71.6926 33.5814 72.0958 33.9846 72.5998 33.9846C73.1038 33.9846 73.507 33.5814 73.507 33.0774C73.507 32.5734 73.1038 32.1702 72.5998 32.1702C72.0958 32.1702 71.6926 32.5734 71.6926 33.0774Z" fill="#0B50AA"/>
<path d="M97.8788 16.8262H88.8516V18.6294H97.8788V16.8262Z" fill="#0B50AA"/>
<path d="M97.8788 20.4326H88.8516V22.2358H97.8788V20.4326Z" fill="#0B50AA"/>
<path d="M87.9438 29.1797V25.8533H85.2334V13.2085H101.496V25.8533H94.0478L87.955 29.1797H87.9438ZM99.6926 15.0117H87.0478V24.0389H89.7582V26.1333L93.5886 24.0389H99.6926V15.0117Z" fill="#0B50AA"/>
<path d="M82.5237 46.6293H97.0949L96.0757 45.0949V30.3669C96.0757 28.8773 97.2965 27.6565 98.7861 27.6565C100.276 27.6565 101.496 28.8773 101.496 30.3669V45.0949L99.2677 48.4325H82.5237V46.6293ZM98.7861 29.4709C98.2933 29.4709 97.8789 29.8741 97.8789 30.3781V32.1813H99.6821V30.3781C99.6821 29.8853 99.2789 29.4709 98.7749 29.4709H98.7861ZM98.7861 45.9013L99.6933 44.5461V33.9845H97.8901V44.5461L98.7973 45.9013H98.7861Z" fill="#0B50AA"/>
<path d="M84.3369 43.0117H82.5337V44.8149H84.3369V43.0117Z" fill="#0B50AA"/>
<path d="M94.2713 43.0117H86.1401V44.8149H94.2713V43.0117Z" fill="#0B50AA"/>
<path d="M94.2713 39.4053H86.1401V41.2085H94.2713V39.4053Z" fill="#0B50AA"/>
<path d="M87.9433 35.7876H86.1401V37.5908H87.9433V35.7876Z" fill="#0B50AA"/>
<path d="M94.2719 35.7876H89.7583V37.5908H94.2719V35.7876Z" fill="#0B50AA"/>
</g>
<line x1="176.496" y1="25.7085" x2="286.496" y2="25.7085" stroke="black" stroke-dasharray="2 4"/>
<defs>
<linearGradient id="paint0_linear_13232_8" x1="108.496" y1="0.5" x2="108.496" y2="232.603" gradientUnits="userSpaceOnUse">
<stop stop-color="#FF461E"/>
<stop offset="1" stop-color="#9FA4B8" stop-opacity="0"/>
</linearGradient>
<clipPath id="clip0_13232_8">
<rect width="56" height="56" fill="white" transform="translate(45.4958 13.2085)"/>
</clipPath>
</defs>
</svg>
