<svg width="287" height="233" viewBox="0 0 287 233" fill="none" xmlns="http://www.w3.org/2000/svg">
<path d="M127.624 31.3685C126.856 31.3685 126.248 31.2032 125.8 30.8725C125.352 30.5418 125.032 30.0885 124.84 29.5125C124.648 28.9365 124.552 28.2805 124.552 27.5445V21.9125C124.552 21.1658 124.648 20.5098 124.84 19.9445C125.043 19.3685 125.368 18.9205 125.816 18.6005C126.275 18.2805 126.877 18.1205 127.624 18.1205C128.392 18.1205 129 18.2805 129.448 18.6005C129.907 18.9205 130.232 19.3685 130.424 19.9445C130.627 20.5098 130.728 21.1658 130.728 21.9125V27.5445C130.728 28.2912 130.627 28.9525 130.424 29.5285C130.232 30.1045 129.912 30.5578 129.464 30.8885C129.016 31.2085 128.403 31.3685 127.624 31.3685ZM127.624 30.4405C128.125 30.4405 128.509 30.3125 128.776 30.0565C129.053 29.8005 129.245 29.4645 129.352 29.0485C129.469 28.6218 129.528 28.1525 129.528 27.6405V21.8325C129.528 21.3098 129.469 20.8405 129.352 20.4245C129.245 19.9978 129.059 19.6618 128.792 19.4165C128.525 19.1712 128.136 19.0485 127.624 19.0485C127.133 19.0485 126.749 19.1712 126.472 19.4165C126.205 19.6618 126.013 19.9978 125.896 20.4245C125.789 20.8405 125.736 21.3098 125.736 21.8325V27.6405C125.736 28.1525 125.789 28.6218 125.896 29.0485C126.013 29.4645 126.211 29.8005 126.488 30.0565C126.765 30.3125 127.144 30.4405 127.624 30.4405ZM136.466 31.2085V27.4165H132.562V26.2325L136.242 18.2485H137.618V26.3605H139.106V27.4165H137.618V31.2085H136.466ZM133.746 26.3605H136.466V19.8005L133.746 26.3605Z" fill="#050F36"/>
<path d="M123.496 49.8836H143.496L166.496 25.1918L149.496 0.5L30.4961 0.5L0.496094 232.603" stroke="url(#paint0_linear_13232_9)"/>
<g clip-path="url(#clip0_13232_9)">
<path d="M84.9417 13.2109H57.8265C57.1993 13.2109 56.6953 13.7206 56.6953 14.3301C56.6953 14.9395 57.2105 15.4492 57.8265 15.4492H84.9417C85.5689 15.4492 86.0729 14.9395 86.0729 14.3301C86.0729 13.7206 85.5577 13.2109 84.9417 13.2109Z" fill="#0B50AA"/>
<path d="M90.5538 18.8179H52.2274C51.6002 18.8179 51.0962 19.3276 51.0962 19.937C51.0962 20.5464 51.6002 21.0561 52.2274 21.0561H90.5538C91.181 21.0561 91.685 20.5464 91.685 19.937C91.685 19.3276 91.1698 18.8179 90.5538 18.8179Z" fill="#0B50AA"/>
<path d="M101.462 55.771L101.429 52.1255C101.44 52.059 101.44 51.9926 101.44 51.9261C101.44 50.8956 100.667 50.0646 99.1441 49.4441C98.5505 49.2114 97.9457 49.0341 97.3185 48.8901V28.7791C97.3073 26.3082 95.2913 24.3248 92.8049 24.3137H49.9873C47.5009 24.3248 45.4961 26.3193 45.4961 28.7791V51.1061C45.4961 53.566 47.5009 55.6048 49.9873 55.6048H65.6113C67.0561 60.2253 72.0177 62.8181 76.6881 61.3887C77.7073 61.0785 78.6593 60.5799 79.5105 59.9372C80.8545 60.2142 82.2321 60.3583 83.5985 60.3804C83.8673 61.0896 84.6625 61.8763 86.5665 62.4525C88.1569 62.94 90.2401 63.1948 92.4577 63.1948C95.8177 63.1948 101.496 62.4414 101.496 59.6602V59.627L101.462 55.7599V55.771ZM99.0433 51.9372C98.4049 52.4136 96.1201 53.2114 92.3121 53.2114C88.5041 53.2114 86.2753 52.4025 85.6817 51.9482C86.2753 51.4718 88.5265 50.6851 92.3121 50.6851H92.4801C93.2081 50.6851 93.9025 50.7072 94.5521 50.7737C97.1505 51.0064 98.5617 51.5937 99.0433 51.9372ZM84.1361 44.9011C86.1745 44.9011 88.2129 44.6795 89.8593 44.2584C90.3857 44.1366 90.9009 43.9704 91.4049 43.7709V45.0895C90.8337 45.6213 88.1121 46.5078 84.1585 46.5078C82.4785 46.5078 80.8097 46.3305 79.4881 46.0091C78.8721 45.5327 78.2113 45.156 77.4945 44.8679L77.4721 43.8706C79.2753 44.6019 81.8513 44.89 84.1361 44.89V44.9011ZM77.5057 41.3886C77.9201 41.0784 79.2865 40.4135 82.2545 40.1809H82.2657C82.8481 40.1365 83.4641 40.1144 84.1361 40.1144C87.7761 40.1144 90.4081 40.8678 91.2033 41.3886C90.4081 41.9205 87.7761 42.6629 84.1361 42.6629C80.3505 42.6629 78.1105 41.854 77.5057 41.3886ZM93.6785 48.4247V46.0645H95.0337V48.5355C94.9217 48.5244 94.8657 48.5133 94.7873 48.5133H94.7985C94.4289 48.469 94.0145 48.4468 93.6785 48.4247ZM87.3281 26.552H92.7937C94.0257 26.563 95.0225 27.5492 95.0337 28.768V33.8318H93.7009C90.1953 33.8318 87.3281 30.973 87.3281 27.5049V26.5409V26.552ZM47.7585 28.7791C47.7585 27.5603 48.7441 26.5741 49.9761 26.563H55.4641V27.5824C55.4641 31.0506 52.5745 33.8539 49.0689 33.8539H47.7585V28.7902V28.7791ZM55.4753 53.3554H49.9873C48.7665 53.3554 47.7697 52.325 47.7697 51.1061V46.0756H49.0801C52.5857 46.0756 55.4753 48.9122 55.4753 52.3804V53.3665V53.3554ZM65.2081 53.0009C65.2081 53.1117 65.2081 53.2446 65.2193 53.3554H57.7377V52.3693C57.7377 47.6601 53.8289 43.8263 49.0801 43.8263H47.7697V36.0922H49.0801C53.8289 36.0922 57.7377 32.2805 57.7377 27.5824V26.563H85.0545V27.527C85.0545 32.2362 88.9409 36.0922 93.6897 36.0922H95.0225V43.8263H93.6673V41.7321C93.6561 41.6767 93.6449 41.6324 93.6337 41.577V41.3775C93.6337 40.1698 92.4913 39.2279 90.2513 38.5964C88.5601 38.1199 86.3313 37.854 84.1249 37.854C83.7889 37.854 83.4529 37.8651 83.1393 37.8761C81.9857 31.4384 75.7809 27.1503 69.2737 28.2916C62.7665 29.4329 58.4321 35.5714 59.5857 42.0091C60.2241 45.5438 62.4305 48.5909 65.6001 50.3194C65.3313 51.1948 65.1969 52.1034 65.1969 53.012L65.2081 53.0009ZM61.6801 39.9482C61.6801 34.6517 66.0257 30.3636 71.3681 30.3636C75.9825 30.3636 79.9585 33.588 80.8657 38.0645C79.5665 38.2307 78.4129 38.4966 77.5057 38.8512C75.5233 39.6158 75.0977 40.6462 75.0977 41.3775C75.0977 41.4662 75.1089 41.5437 75.1201 41.6213L75.1873 44.2806C74.8177 44.2363 74.4257 44.2141 74.0561 44.2141C71.0321 44.2252 68.2097 45.7543 66.5745 48.2806C63.5505 46.5742 61.6801 43.3942 61.6689 39.9482H61.6801ZM80.3729 54.9289C79.2865 58.3749 75.5905 60.2918 72.1073 59.217C69.7665 58.4968 68.0305 56.5577 67.5825 54.1865C67.5041 53.7987 67.4705 53.3887 67.4705 53.0009C67.4705 52.1034 67.6497 51.2059 68.0305 50.3859C68.0865 50.3083 68.1201 50.2197 68.1537 50.12C69.2625 47.8928 71.5697 46.4745 74.0673 46.4745C77.1921 46.4745 79.8913 48.6463 80.5297 51.6823C80.6193 52.1144 80.6641 52.5577 80.6641 52.9898C80.6641 53.6546 80.5633 54.3084 80.3729 54.9399V54.9289ZM81.3697 57.9649C81.7057 57.4774 81.9969 56.9677 82.2209 56.4247C82.6129 56.458 83.0161 56.469 83.4081 56.4801L83.4305 58.12C82.7137 58.0979 82.0193 58.0425 81.3697 57.9649ZM82.9265 52.6131C83.0609 52.6241 83.2065 52.6241 83.3521 52.6241L83.3745 54.253C83.1953 54.2419 83.0273 54.2419 82.8369 54.2308C82.8929 53.8208 82.9265 53.3998 82.9265 52.9898C82.9265 52.8679 82.9265 52.746 82.9153 52.6241L82.9265 52.6131ZM84.0353 50.3859C83.5201 50.3859 83.0161 50.3637 82.5233 50.3305C82.3329 49.7432 82.0865 49.1892 81.7729 48.6574C82.5345 48.7238 83.3185 48.7571 84.1249 48.7571C86.3201 48.7571 88.5825 48.4912 90.2737 48.0036C90.6769 47.8928 91.0577 47.7709 91.3937 47.638V48.4025C88.4593 48.5133 85.4241 49.0895 84.0353 50.3859ZM85.6481 54.4303C87.4737 55.1616 90.0721 55.4496 92.3009 55.4496C94.5297 55.4496 96.5121 55.2059 98.1025 54.7405C98.4609 54.6408 98.8193 54.5189 99.1665 54.3748V55.6713C98.7969 56.1034 96.4449 57.0674 92.3009 57.0674C88.5153 57.0674 86.2753 56.2585 85.6705 55.7931L85.6481 54.4413V54.4303ZM92.4577 60.9566C90.6993 60.9566 89.0081 60.7793 87.6865 60.4358C86.3985 60.1145 85.8609 59.7378 85.7265 59.5937L85.7041 58.3306C87.5409 59.0508 90.1169 59.3278 92.3009 59.3278C94.3393 59.3278 97.2289 59.0619 99.2001 58.2419V59.5716C98.8529 59.9926 96.5345 60.9455 92.4577 60.9455V60.9566Z" fill="#0B50AA"/>
<path d="M74.078 47.9595C71.278 47.9595 69.0044 50.2088 69.0044 52.9789C69.0044 55.749 71.278 57.9983 74.078 57.9983C76.878 57.9983 79.1516 55.749 79.1516 52.9789C79.1516 50.2088 76.878 47.9706 74.078 47.9595ZM74.078 55.7712C72.5212 55.7712 71.2668 54.5302 71.2668 52.99C71.2668 51.4498 72.5212 50.2088 74.078 50.2088C75.6348 50.2088 76.8892 51.4498 76.8892 52.99C76.8892 54.5302 75.6348 55.7712 74.078 55.7712Z" fill="#0B50AA"/>
</g>
<line x1="176.496" y1="25.7085" x2="286.496" y2="25.7085" stroke="black" stroke-dasharray="2 4"/>
<defs>
<linearGradient id="paint0_linear_13232_9" x1="108.496" y1="0.5" x2="108.496" y2="232.603" gradientUnits="userSpaceOnUse">
<stop stop-color="#FF461E"/>
<stop offset="1" stop-color="#9FA4B8" stop-opacity="0"/>
</linearGradient>
<clipPath id="clip0_13232_9">
<rect width="56" height="50" fill="white" transform="translate(45.4961 13.2085)"/>
</clipPath>
</defs>
</svg>
