<svg width="280" height="230" viewBox="0 0 280 230" fill="none" xmlns="http://www.w3.org/2000/svg">
<g clip-path="url(#clip0_13066_1345)">
<path d="M107.278 252.772C94.1668 252.772 83.3008 250.078 74.6799 244.69C66.059 239.301 59.5933 231.938 55.2829 222.598C50.9724 213.08 48.8172 202.124 48.8172 189.731V91.9378C48.8172 79.186 50.8826 68.0507 55.0135 58.5318C59.1443 48.8333 65.5202 41.29 74.1411 35.9019C82.762 30.5138 93.8076 27.8198 107.278 27.8198C120.568 27.8198 131.434 30.5138 139.876 35.9019C148.496 41.29 154.872 48.8333 159.003 58.5318C163.134 68.0507 165.199 79.186 165.199 91.9378V189.731C165.199 202.124 163.044 213.08 158.734 222.598C154.423 231.938 147.958 239.301 139.337 244.69C130.716 250.078 120.029 252.772 107.278 252.772ZM107.278 216.133C112.127 216.133 115.629 214.606 117.784 211.553C119.94 208.5 121.377 204.908 122.095 200.777C122.813 196.466 123.173 192.515 123.173 188.923V92.746C123.173 88.7948 122.813 84.6639 122.095 80.3535C121.556 76.043 120.209 72.3612 118.054 69.3079C115.899 66.0751 112.307 64.4586 107.278 64.4586C102.249 64.4586 98.567 66.0751 96.2322 69.3079C94.077 72.3612 92.6401 76.043 91.9217 80.3535C91.3829 84.6639 91.1135 88.7948 91.1135 92.746V188.923C91.1135 192.515 91.4727 196.466 92.1911 200.777C92.9095 204.908 94.4362 208.5 96.771 211.553C99.1058 214.606 102.608 216.133 107.278 216.133ZM218.264 249V73.8878C216.647 74.7858 214.402 75.7736 211.528 76.8512C208.834 77.7492 205.871 78.8268 202.638 80.0841C199.405 81.1617 196.352 82.2393 193.478 83.3169C190.605 84.2149 188.36 85.0231 186.743 85.7415V55.0295C188.899 53.9519 191.772 52.5151 195.364 50.7191C199.136 48.9231 203.087 46.9474 207.218 44.7922C211.349 42.637 215.21 40.3021 218.802 37.7877C222.574 35.2733 225.448 32.9385 227.423 30.7832H259.752V249H218.264Z" fill="url(#paint0_linear_13066_1345)"/>
</g>
<defs>
<linearGradient id="paint0_linear_13066_1345" x1="80.5" y1="49" x2="254.5" y2="223" gradientUnits="userSpaceOnUse">
<stop stop-color="#E4EBF5"/>
<stop offset="0.45" stop-color="#F3F8FF"/>
</linearGradient>
<clipPath id="clip0_13066_1345">
<rect width="280" height="230" fill="white"/>
</clipPath>
</defs>
</svg>
