<svg width="280" height="230" viewBox="0 0 280 230" fill="none" xmlns="http://www.w3.org/2000/svg">
<g clip-path="url(#clip0_13066_1341)">
<path d="M107.278 252.772C94.1668 252.772 83.3008 250.078 74.6799 244.69C66.059 239.301 59.5933 231.938 55.2829 222.598C50.9724 213.08 48.8172 202.124 48.8172 189.731V91.9378C48.8172 79.186 50.8826 68.0507 55.0135 58.5318C59.1443 48.8333 65.5202 41.29 74.1411 35.9019C82.762 30.5138 93.8076 27.8198 107.278 27.8198C120.568 27.8198 131.434 30.5138 139.876 35.9019C148.496 41.29 154.872 48.8333 159.003 58.5318C163.134 68.0507 165.199 79.186 165.199 91.9378V189.731C165.199 202.124 163.044 213.08 158.734 222.598C154.423 231.938 147.958 239.301 139.337 244.69C130.716 250.078 120.029 252.772 107.278 252.772ZM107.278 216.133C112.127 216.133 115.629 214.606 117.784 211.553C119.94 208.5 121.377 204.908 122.095 200.777C122.813 196.466 123.173 192.515 123.173 188.923V92.746C123.173 88.7948 122.813 84.6639 122.095 80.3535C121.556 76.043 120.209 72.3612 118.054 69.3079C115.899 66.0751 112.307 64.4586 107.278 64.4586C102.249 64.4586 98.567 66.0751 96.2322 69.3079C94.077 72.3612 92.6401 76.043 91.9217 80.3535C91.3829 84.6639 91.1135 88.7948 91.1135 92.746V188.923C91.1135 192.515 91.4727 196.466 92.1911 200.777C92.9095 204.908 94.4362 208.5 96.771 211.553C99.1058 214.606 102.608 216.133 107.278 216.133ZM191.323 249V219.635L244.396 138.006C248.347 131.899 252.029 126.062 255.441 120.495C259.033 114.927 261.907 109.269 264.062 103.522C266.397 97.5953 267.564 91.3092 267.564 84.6639C267.564 77.6594 266.217 72.3612 263.523 68.7691C260.829 64.9975 256.968 63.1116 251.939 63.1116C246.551 63.1116 242.42 64.6383 239.546 67.6915C236.673 70.5651 234.697 74.4266 233.62 79.2758C232.542 84.1251 232.003 89.4234 232.003 95.1706V105.408H191.323V94.6318C191.323 81.7005 193.299 70.2059 197.25 60.1482C201.381 50.0905 207.757 42.2778 216.378 36.7101C225.178 30.9628 236.673 28.0892 250.861 28.0892C270.079 28.0892 284.537 33.1181 294.235 43.1758C303.934 53.2335 308.783 67.3323 308.783 85.4721C308.783 94.2726 307.436 102.445 304.742 109.988C302.048 117.352 298.456 124.536 293.966 131.54C289.655 138.365 284.986 145.459 279.957 152.823L237.93 216.133H302.856V249H191.323Z" fill="url(#paint0_linear_13066_1341)"/>
</g>
<defs>
<linearGradient id="paint0_linear_13066_1341" x1="86.638" y1="49" x2="259.309" y2="244.464" gradientUnits="userSpaceOnUse">
<stop stop-color="#E4EBF5"/>
<stop offset="0.45" stop-color="#F3F8FF"/>
</linearGradient>
<clipPath id="clip0_13066_1341">
<rect width="280" height="230" fill="white"/>
</clipPath>
</defs>
</svg>
