<svg width="280" height="230" viewBox="0 0 280 230" fill="none" xmlns="http://www.w3.org/2000/svg">
<g clip-path="url(#clip0_13066_1337)">
<path d="M107.278 252.772C94.1668 252.772 83.3008 250.078 74.6799 244.69C66.059 239.301 59.5933 231.938 55.2829 222.598C50.9724 213.08 48.8172 202.124 48.8172 189.731V91.9378C48.8172 79.186 50.8826 68.0507 55.0135 58.5318C59.1443 48.8333 65.5202 41.29 74.1411 35.9019C82.762 30.5138 93.8076 27.8198 107.278 27.8198C120.568 27.8198 131.434 30.5138 139.876 35.9019C148.496 41.29 154.872 48.8333 159.003 58.5318C163.134 68.0507 165.199 79.186 165.199 91.9378V189.731C165.199 202.124 163.044 213.08 158.734 222.598C154.423 231.938 147.958 239.301 139.337 244.69C130.716 250.078 120.029 252.772 107.278 252.772ZM107.278 216.133C112.127 216.133 115.629 214.606 117.784 211.553C119.94 208.5 121.377 204.908 122.095 200.777C122.813 196.466 123.173 192.515 123.173 188.923V92.746C123.173 88.7948 122.813 84.6639 122.095 80.3535C121.556 76.043 120.209 72.3612 118.054 69.3079C115.899 66.0751 112.307 64.4586 107.278 64.4586C102.249 64.4586 98.567 66.0751 96.2322 69.3079C94.077 72.3612 92.6401 76.043 91.9217 80.3535C91.3829 84.6639 91.1135 88.7948 91.1135 92.746V188.923C91.1135 192.515 91.4727 196.466 92.1911 200.777C92.9095 204.908 94.4362 208.5 96.771 211.553C99.1058 214.606 102.608 216.133 107.278 216.133ZM249.245 252.772C234.697 252.772 223.113 250.078 214.492 244.69C206.051 239.122 199.944 231.399 196.172 221.521C192.401 211.463 190.515 199.969 190.515 187.037V179.225H232.003C232.003 179.584 232.003 180.572 232.003 182.188C232.003 183.625 232.003 185.062 232.003 186.498C232.183 193.503 232.721 199.34 233.62 204.01C234.697 208.5 236.493 211.912 239.008 214.247C241.522 216.582 245.114 217.749 249.784 217.749C254.633 217.749 258.225 216.582 260.56 214.247C262.895 211.733 264.511 208.14 265.409 203.471C266.307 198.801 266.756 193.054 266.756 186.229C266.756 175.273 265.14 166.832 261.907 160.905C258.674 154.799 252.208 151.656 242.51 151.476C242.33 151.476 241.432 151.476 239.816 151.476C238.199 151.476 236.673 151.476 235.236 151.476V120.764C236.314 120.764 237.391 120.764 238.469 120.764C239.726 120.764 240.804 120.764 241.702 120.764C251.4 120.764 257.956 118.16 261.368 112.951C264.96 107.743 266.756 99.5709 266.756 88.4356C266.756 79.8146 265.499 73.0796 262.984 68.2303C260.47 63.381 255.8 60.9564 248.976 60.9564C242.151 60.9564 237.661 63.6504 235.505 69.0385C233.35 74.4266 232.183 81.3413 232.003 89.7826C232.003 91.2194 232.003 92.8358 232.003 94.6318C232.003 96.2483 232.003 97.8647 232.003 99.4811H190.515V87.6273C190.515 74.8756 192.85 64.0995 197.519 55.2989C202.189 46.3188 208.834 39.4939 217.455 34.8243C226.076 30.1546 236.583 27.8198 248.976 27.8198C261.368 27.8198 271.965 30.0648 280.765 34.5549C289.566 39.0449 296.211 45.6004 300.701 54.2213C305.371 62.8422 307.705 73.5286 307.705 86.2803C307.705 99.0321 305.011 109.629 299.623 118.07C294.415 126.511 287.949 131.899 280.226 134.234C285.614 136.03 290.374 138.994 294.505 143.124C298.636 147.255 301.868 152.823 304.203 159.827C306.538 166.652 307.705 175.183 307.705 185.421C307.705 198.532 305.82 210.206 302.048 220.443C298.276 230.501 292.08 238.403 283.459 244.151C274.838 249.898 263.433 252.772 249.245 252.772Z" fill="url(#paint0_linear_13066_1337)"/>
</g>
<defs>
<linearGradient id="paint0_linear_13066_1337" x1="86.638" y1="49" x2="259.309" y2="244.464" gradientUnits="userSpaceOnUse">
<stop stop-color="#E4EBF5"/>
<stop offset="0.45" stop-color="#F3F8FF"/>
</linearGradient>
<clipPath id="clip0_13066_1337">
<rect width="280" height="230" fill="white"/>
</clipPath>
</defs>
</svg>
